<?xml version="1.0" encoding="UTF-8"?>
<svg xmlns="http://www.w3.org/2000/svg" xmlns:xlink="http://www.w3.org/1999/xlink" viewBox="0 0 48 48" width="48px" height="48px">
<defs>
<linearGradient id="linear0" gradientUnits="userSpaceOnUse" x1="86.627083" y1="36.564331" x2="86.627083" y2="139.75" gradientTransform="matrix(0.27907,0,0,0.27907,0,0)">
<stop offset="0.278" style="stop-color:rgb(120, 0, 156);stop-opacity:1;"/>
<stop offset="0.458" style="stop-color:rgb(120, 0, 156);stop-opacity:1;"/>
<stop offset="0.79" style="stop-color:rgb(120, 0, 156);stop-opacity:1;"/>
<stop offset="1" style="stop-color:rgb(120, 0, 156);stop-opacity:1;"/>
</linearGradient>
</defs>
<g id="surface59205690">
<path style=" stroke:none;fill-rule:nonzero;fill:url(#linear0);" d="M 21 39 C 20.074219 39.003906 19.179688 38.683594 18.464844 38.09375 L 4.839844 26.375 C 4.226562 25.84375 4.144531 24.921875 4.65625 24.289062 L 7.820312 20.414062 C 8.074219 20.101562 8.449219 19.90625 8.851562 19.871094 C 9.257812 19.835938 9.65625 19.964844 9.964844 20.230469 L 20.601562 29.464844 L 37.699219 10.695312 C 38.253906 10.085938 39.195312 10.035156 39.808594 10.585938 L 43.535156 13.929688 C 43.835938 14.195312 44.011719 14.570312 44.035156 14.96875 C 44.054688 15.367188 43.914062 15.757812 43.648438 16.054688 L 23.980469 37.671875 C 23.21875 38.515625 22.136719 38.996094 21 39 Z M 21 39 "/>
</g>
</svg>
